<svg xmlns="http://www.w3.org/2000/svg" xmlns:xlink="http://www.w3.org/1999/xlink" width="500" zoomAndPan="magnify" viewBox="0 0 375 374.999991" height="500" preserveAspectRatio="xMidYMid meet" version="1.0"><defs><clipPath id="89211e121e"><path d="M 50.78125 70.433594 L 324.53125 70.433594 L 324.53125 304.433594 L 50.78125 304.433594 Z M 50.78125 70.433594 " clip-rule="nonzero"/></clipPath><clipPath id="f32e88c014"><path d="M 50.78125 197 L 300 197 L 300 285 L 50.78125 285 Z M 50.78125 197 " clip-rule="nonzero"/></clipPath><clipPath id="579b29d6da"><path d="M 50.78125 226 L 215 226 L 215 261 L 50.78125 261 Z M 50.78125 226 " clip-rule="nonzero"/></clipPath><clipPath id="8beffda464"><path d="M 161 160.296875 L 184 160.296875 L 184 183 L 161 183 Z M 161 160.296875 " clip-rule="nonzero"/></clipPath><clipPath id="a47bb7a58c"><path d="M 290 189 L 311.992188 189 L 311.992188 212 L 290 212 Z M 290 189 " clip-rule="nonzero"/></clipPath></defs><g clip-path="url(#89211e121e)"><path fill="#000000" d="M 304.855469 109.433594 L 246.257812 109.433594 L 246.257812 80.183594 C 246.257812 74.804688 241.882812 70.433594 236.492188 70.433594 L 138.824219 70.433594 C 133.433594 70.433594 129.058594 74.804688 129.058594 80.183594 L 129.058594 109.433594 L 70.457031 109.433594 C 59.675781 109.433594 50.921875 118.171875 50.921875 128.933594 L 50.921875 284.933594 C 50.921875 295.699219 59.675781 304.433594 70.457031 304.433594 L 304.855469 304.433594 C 315.640625 304.433594 324.390625 295.699219 324.390625 284.933594 L 324.390625 128.933594 C 324.390625 118.171875 315.640625 109.433594 304.855469 109.433594 Z M 148.589844 89.933594 L 226.722656 89.933594 L 226.722656 109.433594 L 148.589844 109.433594 Z M 148.589844 89.933594 " fill-opacity="1" fill-rule="nonzero"/></g><g clip-path="url(#f32e88c014)"><path fill="#650d9a" d="M -100.671875 281.789062 L -106.75 278.894531 L -53.253906 225.152344 C -52.582031 224.480469 -51.671875 224.101562 -50.722656 224.101562 L 107.808594 224.171875 L 105.328125 225.167969 L 133.023438 198.503906 C 133.6875 197.863281 134.574219 197.507812 135.496094 197.503906 L 295.585938 197.480469 C 297.558594 197.480469 299.15625 199.078125 299.15625 201.046875 C 299.15625 203.019531 297.558594 204.617188 295.589844 204.617188 L 135.5 204.644531 L 137.972656 203.648438 L 110.28125 230.3125 C 109.617188 230.953125 108.726562 231.3125 107.804688 231.308594 L -50.726562 231.242188 L -48.191406 230.191406 L -101.691406 283.933594 C -102.757812 285.007812 -104.386719 285.289062 -105.753906 284.636719 C -107.121094 283.988281 -107.929688 282.546875 -107.769531 281.039062 C -107.5625 279.078125 -105.804688 277.65625 -103.84375 277.863281 C -101.886719 278.070312 -100.464844 279.828125 -100.671875 281.789062 Z M -100.671875 281.789062 " fill-opacity="1" fill-rule="nonzero"/></g><path fill="#650d9a" d="M 62.519531 225.804688 L 56.523438 222.566406 L 111.25 169.214844 C 111.917969 168.5625 112.816406 168.199219 113.75 168.203125 L 167.332031 168.34375 C 169.304688 168.347656 170.898438 169.949219 170.890625 171.921875 C 170.886719 173.894531 169.285156 175.488281 167.3125 175.480469 L 113.730469 175.339844 L 116.230469 174.328125 L 61.507812 227.675781 C 60.386719 228.765625 58.691406 229.003906 57.316406 228.261719 C 55.945312 227.519531 55.210938 225.96875 55.511719 224.4375 C 55.886719 222.503906 57.761719 221.238281 59.699219 221.617188 C 61.632812 221.996094 62.894531 223.871094 62.519531 225.804688 Z M 62.519531 225.804688 " fill-opacity="1" fill-rule="nonzero"/><g clip-path="url(#579b29d6da)"><path fill="#650d9a" d="M 21.167969 231.003906 L 20.21875 227.957031 L 45.425781 254.214844 L 42.824219 253.117188 L 147.726562 252.445312 L 145.324219 253.394531 L 170.242188 230.324219 C 170.910156 229.707031 171.792969 229.367188 172.703125 229.375 L 210.984375 229.777344 C 212.957031 229.796875 214.535156 231.410156 214.515625 233.382812 C 214.496094 235.355469 212.878906 236.9375 210.910156 236.914062 L 172.628906 236.515625 L 175.09375 235.566406 L 150.175781 258.632812 C 149.519531 259.238281 148.664062 259.578125 147.773438 259.582031 L 42.871094 260.257812 C 41.890625 260.261719 40.953125 259.863281 40.273438 259.15625 L 15.066406 232.898438 C 14.289062 232.089844 13.941406 230.957031 14.121094 229.851562 C 14.441406 227.90625 16.273438 226.585938 18.21875 226.902344 C 20.167969 227.222656 21.484375 229.058594 21.167969 231.003906 Z M 21.167969 231.003906 " fill-opacity="1" fill-rule="nonzero"/></g><g clip-path="url(#8beffda464)"><path fill="#650d9a" d="M 183.550781 171.996094 L 183.375 173.480469 C 182.742188 176.464844 181.226562 178.796875 178.824219 180.480469 C 176.40625 182.160156 173.632812 182.75 170.5 182.246094 C 167.515625 181.613281 165.183594 180.097656 163.5 177.695312 C 162.960938 176.917969 162.527344 176.082031 162.199219 175.179688 L 161.800781 173.800781 C 161.589844 172.851562 161.507812 171.871094 161.558594 170.855469 C 161.796875 167.746094 163.007812 165.207031 165.183594 163.246094 C 167.359375 161.285156 170.003906 160.347656 173.125 160.429688 C 176.234375 160.667969 178.773438 161.875 180.734375 164.050781 C 182.695312 166.226562 183.636719 168.875 183.550781 171.996094 " fill-opacity="1" fill-rule="nonzero"/></g><path fill="#650d9a" d="M 227.289062 234.230469 L 227.113281 235.714844 C 226.832031 237.042969 226.375 238.238281 225.746094 239.308594 C 225.429688 239.839844 225.070312 240.34375 224.667969 240.8125 C 223.585938 241.933594 222.882812 242.566406 222.5625 242.714844 C 222.316406 242.96875 221.46875 243.40625 220.027344 244.03125 C 219.4375 244.242188 218.828125 244.398438 218.203125 244.503906 C 216.953125 244.710938 215.628906 244.703125 214.238281 244.480469 C 212.636719 244.050781 211.714844 243.742188 211.472656 243.550781 C 210.90625 243.28125 210.371094 242.964844 209.867188 242.605469 C 208.863281 241.890625 207.988281 240.996094 207.238281 239.929688 C 205.578125 237.355469 204.96875 234.734375 205.414062 232.074219 C 205.613281 230.75 206.007812 229.535156 206.59375 228.4375 C 206.886719 227.886719 207.226562 227.367188 207.613281 226.875 C 207.753906 226.585938 208.4375 225.917969 209.664062 224.863281 C 211.691406 223.324219 214.089844 222.589844 216.863281 222.664062 C 218.246094 222.769531 219.515625 223.066406 220.671875 223.554688 C 222.066406 224.25 222.867188 224.726562 223.078125 224.980469 C 223.570312 225.367188 224.035156 225.804688 224.472656 226.285156 C 224.90625 226.769531 225.292969 227.277344 225.628906 227.808594 C 225.859375 228.042969 226.246094 228.890625 226.796875 230.351562 C 227.160156 231.550781 227.328125 232.84375 227.289062 234.230469 " fill-opacity="1" fill-rule="nonzero"/><g clip-path="url(#a47bb7a58c)"><path fill="#650d9a" d="M 312.09375 201.398438 L 311.917969 202.886719 C 311.378906 205.632812 309.953125 207.910156 307.636719 209.714844 C 305.273438 211.433594 302.558594 212.097656 299.503906 211.714844 C 296.53125 211.183594 294.21875 209.875 292.5625 207.785156 C 292.214844 207.386719 291.871094 206.871094 291.53125 206.238281 C 290.828125 204.800781 290.46875 203.933594 290.453125 203.640625 C 290.128906 202.476562 290.015625 201.308594 290.109375 200.128906 C 290.367188 197.078125 291.574219 194.59375 293.730469 192.679688 C 295.964844 190.667969 298.609375 189.71875 301.667969 189.832031 C 303.332031 190.007812 304.597656 190.304688 305.472656 190.726562 C 306.34375 191.148438 307.070312 191.554688 307.65625 191.949219 C 308.273438 192.441406 308.8125 192.945312 309.277344 193.457031 C 309.738281 193.96875 310.183594 194.558594 310.609375 195.222656 C 310.75 195.410156 311.082031 196.171875 311.597656 197.519531 C 312 199.007812 312.164062 200.300781 312.09375 201.398438 " fill-opacity="1" fill-rule="nonzero"/></g></svg>